<mxfile host="app.diagrams.net" modified="2024-01-25T10:31:58.630Z" agent="Mozilla/5.0 (Windows NT 10.0; Win64; x64; rv:121.0) Gecko/20100101 Firefox/121.0" etag="5lQsrOjQiVIkSPjx_an-" version="23.0.1" type="device">
  <diagram name="Page-1" id="R7s6xCUYPcDgzsnBZri8">
    <mxGraphModel dx="995" dy="616" grid="1" gridSize="10" guides="1" tooltips="1" connect="1" arrows="1" fold="1" page="1" pageScale="1" pageWidth="827" pageHeight="1169" math="0" shadow="0">
      <root>
        <mxCell id="0" />
        <mxCell id="1" parent="0" />
        <mxCell id="3-MmPayVCdj3wP6HPLZZ-1" value="&lt;div&gt;Usuario no registrado&lt;/div&gt;&lt;div&gt;&lt;br&gt;&lt;/div&gt;" style="shape=umlActor;verticalLabelPosition=bottom;verticalAlign=top;html=1;outlineConnect=0;" parent="1" vertex="1">
          <mxGeometry x="70" y="280" width="70" height="150" as="geometry" />
        </mxCell>
        <mxCell id="3-MmPayVCdj3wP6HPLZZ-3" value="" style="whiteSpace=wrap;html=1;aspect=fixed;" parent="1" vertex="1">
          <mxGeometry x="290" y="50" width="390" height="390" as="geometry" />
        </mxCell>
        <mxCell id="3-MmPayVCdj3wP6HPLZZ-4" value="Sistema" style="text;html=1;strokeColor=none;fillColor=none;align=center;verticalAlign=middle;whiteSpace=wrap;rounded=0;" parent="1" vertex="1">
          <mxGeometry x="440" y="60" width="60" height="30" as="geometry" />
        </mxCell>
        <mxCell id="3-MmPayVCdj3wP6HPLZZ-5" value="Consultar las estadísticas generales" style="ellipse;whiteSpace=wrap;html=1;aspect=fixed;" parent="1" vertex="1">
          <mxGeometry x="340" y="280" width="100" height="100" as="geometry" />
        </mxCell>
        <mxCell id="3-MmPayVCdj3wP6HPLZZ-6" value="" style="endArrow=none;html=1;rounded=0;exitX=0.75;exitY=0.1;exitDx=0;exitDy=0;exitPerimeter=0;" parent="1" source="3-MmPayVCdj3wP6HPLZZ-1" target="3-MmPayVCdj3wP6HPLZZ-5" edge="1">
          <mxGeometry width="50" height="50" relative="1" as="geometry">
            <mxPoint x="390" y="370" as="sourcePoint" />
            <mxPoint x="440" y="320" as="targetPoint" />
          </mxGeometry>
        </mxCell>
        <mxCell id="3-MmPayVCdj3wP6HPLZZ-9" value="&lt;div&gt;Usuario registrado&lt;/div&gt;" style="shape=umlActor;verticalLabelPosition=bottom;verticalAlign=top;html=1;outlineConnect=0;" parent="1" vertex="1">
          <mxGeometry x="70" y="20" width="70" height="150" as="geometry" />
        </mxCell>
        <mxCell id="3-MmPayVCdj3wP6HPLZZ-10" value="Consultar mis estadísticas" style="ellipse;whiteSpace=wrap;html=1;aspect=fixed;" parent="1" vertex="1">
          <mxGeometry x="350" y="80" width="100" height="100" as="geometry" />
        </mxCell>
        <mxCell id="3-MmPayVCdj3wP6HPLZZ-11" value="" style="endArrow=none;html=1;rounded=0;exitX=0.75;exitY=0.1;exitDx=0;exitDy=0;exitPerimeter=0;entryX=0;entryY=0;entryDx=0;entryDy=0;" parent="1" source="3-MmPayVCdj3wP6HPLZZ-9" target="3-MmPayVCdj3wP6HPLZZ-10" edge="1">
          <mxGeometry width="50" height="50" relative="1" as="geometry">
            <mxPoint x="170" y="148" as="sourcePoint" />
            <mxPoint x="351" y="289" as="targetPoint" />
          </mxGeometry>
        </mxCell>
        <mxCell id="CKSfC9x2sEJ-dGhOnx01-1" value="Administrador" style="shape=umlActor;verticalLabelPosition=bottom;verticalAlign=top;html=1;outlineConnect=0;" vertex="1" parent="1">
          <mxGeometry x="757" y="240" width="70" height="150" as="geometry" />
        </mxCell>
        <mxCell id="CKSfC9x2sEJ-dGhOnx01-2" value="Consultar estadísticas de un jugador" style="ellipse;whiteSpace=wrap;html=1;aspect=fixed;" vertex="1" parent="1">
          <mxGeometry x="544" y="316" width="114" height="114" as="geometry" />
        </mxCell>
        <mxCell id="CKSfC9x2sEJ-dGhOnx01-3" value="" style="endArrow=none;html=1;rounded=0;exitX=0.25;exitY=0.1;exitDx=0;exitDy=0;exitPerimeter=0;" edge="1" parent="1" source="CKSfC9x2sEJ-dGhOnx01-1" target="CKSfC9x2sEJ-dGhOnx01-2">
          <mxGeometry width="50" height="50" relative="1" as="geometry">
            <mxPoint x="554" y="380" as="sourcePoint" />
            <mxPoint x="604" y="330" as="targetPoint" />
          </mxGeometry>
        </mxCell>
        <mxCell id="CKSfC9x2sEJ-dGhOnx01-5" value="Consultar estadísticas de la aplicación" style="ellipse;whiteSpace=wrap;html=1;aspect=fixed;" vertex="1" parent="1">
          <mxGeometry x="544" y="70" width="100" height="100" as="geometry" />
        </mxCell>
        <mxCell id="CKSfC9x2sEJ-dGhOnx01-6" value="" style="endArrow=none;html=1;rounded=0;entryX=1;entryY=1;entryDx=0;entryDy=0;exitX=0.5;exitY=0;exitDx=0;exitDy=0;exitPerimeter=0;" edge="1" parent="1" source="CKSfC9x2sEJ-dGhOnx01-1" target="CKSfC9x2sEJ-dGhOnx01-5">
          <mxGeometry width="50" height="50" relative="1" as="geometry">
            <mxPoint x="390" y="370" as="sourcePoint" />
            <mxPoint x="440" y="320" as="targetPoint" />
          </mxGeometry>
        </mxCell>
        <mxCell id="CKSfC9x2sEJ-dGhOnx01-7" value="" style="endArrow=none;html=1;rounded=0;entryX=1;entryY=0.7;entryDx=0;entryDy=0;entryPerimeter=0;exitX=0.5;exitY=0;exitDx=0;exitDy=0;exitPerimeter=0;" edge="1" parent="1" source="CKSfC9x2sEJ-dGhOnx01-1" target="3-MmPayVCdj3wP6HPLZZ-10">
          <mxGeometry width="50" height="50" relative="1" as="geometry">
            <mxPoint x="740" y="250" as="sourcePoint" />
            <mxPoint x="440" y="320" as="targetPoint" />
          </mxGeometry>
        </mxCell>
        <mxCell id="CKSfC9x2sEJ-dGhOnx01-8" value="" style="endArrow=none;html=1;rounded=0;entryX=1.03;entryY=0.57;entryDx=0;entryDy=0;entryPerimeter=0;exitX=0.5;exitY=0;exitDx=0;exitDy=0;exitPerimeter=0;" edge="1" parent="1" source="CKSfC9x2sEJ-dGhOnx01-1" target="3-MmPayVCdj3wP6HPLZZ-5">
          <mxGeometry width="50" height="50" relative="1" as="geometry">
            <mxPoint x="390" y="370" as="sourcePoint" />
            <mxPoint x="440" y="320" as="targetPoint" />
          </mxGeometry>
        </mxCell>
        <mxCell id="CKSfC9x2sEJ-dGhOnx01-9" value="Consultar estadísticas de una imagen" style="ellipse;whiteSpace=wrap;html=1;aspect=fixed;" vertex="1" parent="1">
          <mxGeometry x="390" y="190" width="90" height="90" as="geometry" />
        </mxCell>
        <mxCell id="CKSfC9x2sEJ-dGhOnx01-10" value="" style="endArrow=none;html=1;rounded=0;entryX=1;entryY=0.5;entryDx=0;entryDy=0;exitX=0.5;exitY=0;exitDx=0;exitDy=0;exitPerimeter=0;" edge="1" parent="1" source="CKSfC9x2sEJ-dGhOnx01-1" target="CKSfC9x2sEJ-dGhOnx01-9">
          <mxGeometry width="50" height="50" relative="1" as="geometry">
            <mxPoint x="500" y="400" as="sourcePoint" />
            <mxPoint x="550" y="350" as="targetPoint" />
          </mxGeometry>
        </mxCell>
      </root>
    </mxGraphModel>
  </diagram>
</mxfile>
